HIERARCHY
ROOT Hips
{
	OFFSET 0.00000 0.00000 0.00000
	CHANNELS 6 Xposition Yposition Zposition Zrotation Yrotation Xrotation 
	JOINT LHipJoint
	{
		OFFSET 0 0 0
		CHANNELS 3 Zrotation Yrotation Xrotation
		JOINT LeftUpLeg
		{
			OFFSET 1.38615 -1.80049 0.80104
			CHANNELS 3 Zrotation Yrotation Xrotation
			JOINT LeftLeg
			{
				OFFSET 2.50172 -6.87341 0.00000
				CHANNELS 3 Zrotation Yrotation Xrotation
				JOINT LeftFoot
				{
					OFFSET 2.67523 -7.35014 0.00000
					CHANNELS 3 Zrotation Yrotation Xrotation
					JOINT LeftToeBase
					{
						OFFSET 0.17446 -0.47932 2.13155
						CHANNELS 3 Zrotation Yrotation Xrotation
						End Site
						{
							OFFSET 0.00000 -0.00000 1.10023
						}
					}
				}
			}
		}
	}
	JOINT RHipJoint
	{
		OFFSET 0 0 0
		CHANNELS 3 Zrotation Yrotation Xrotation
		JOINT RightUpLeg
		{
			OFFSET -1.18047 -1.80049 0.80104
			CHANNELS 3 Zrotation Yrotation Xrotation
			JOINT RightLeg
			{
				OFFSET -2.59789 -7.13765 0.00000
				CHANNELS 3 Zrotation Yrotation Xrotation
				JOINT RightFoot
				{
					OFFSET -2.62125 -7.20183 0.00000
					CHANNELS 3 Zrotation Yrotation Xrotation
					JOINT RightToeBase
					{
						OFFSET -0.31287 -0.85960 2.07814
						CHANNELS 3 Zrotation Yrotation Xrotation
						End Site
						{
							OFFSET -0.00000 -0.00000 1.11766
						}
					}
				}
			}
		}
	}
	JOINT LowerBack
	{
		OFFSET 0 0 0
		CHANNELS 3 Zrotation Yrotation Xrotation
		JOINT Spine
		{
			OFFSET -0.01587 2.16157 -0.12309
			CHANNELS 3 Zrotation Yrotation Xrotation
			JOINT Spine1
			{
				OFFSET 0.04727 2.16674 -0.03569
				CHANNELS 3 Zrotation Yrotation Xrotation
				JOINT Neck
				{
					OFFSET 0 0 0
					CHANNELS 3 Zrotation Yrotation Xrotation
					JOINT Neck1
					{
						OFFSET -0.08586 1.60335 0.32783
						CHANNELS 3 Zrotation Yrotation Xrotation
						JOINT Head
						{
							OFFSET 0.07583 1.65857 -0.31618
							CHANNELS 3 Zrotation Yrotation Xrotation
							End Site
							{
								OFFSET 0.03386 1.69434 -0.14584
							}
						}
					}
				}
				JOINT LeftShoulder
				{
					OFFSET 0 0 0
					CHANNELS 3 Zrotation Yrotation Xrotation
					JOINT LeftArm
					{
						OFFSET 3.17393 1.01901 -0.52897
						CHANNELS 3 Zrotation Yrotation Xrotation
						JOINT LeftForeArm
						{
							OFFSET 5.25287 -0.00000 -0.00000
							CHANNELS 3 Zrotation Yrotation Xrotation
							JOINT LeftHand
							{
								OFFSET 3.51014 -0.00000 0.00000
								CHANNELS 3 Zrotation Yrotation Xrotation
								JOINT LeftFingerBase
								{
									OFFSET 0 0 0
									CHANNELS 3 Zrotation Yrotation Xrotation
									JOINT LeftHandIndex1
									{
										OFFSET 0.70618 -0.00000 -0.00000
										CHANNELS 3 Zrotation Yrotation Xrotation
										End Site
										{
											OFFSET 0.56934 -0.00000 -0.00000
										}
									}
								}
								JOINT LThumb
								{
									OFFSET 0 0 0
									CHANNELS 3 Zrotation Yrotation Xrotation
									End Site
									{
										OFFSET 0.57803 -0.00000 0.57803
									}
								}
							}
						}
					}
				}
				JOINT RightShoulder
				{
					OFFSET 0 0 0
					CHANNELS 3 Zrotation Yrotation Xrotation
					JOINT RightArm
					{
						OFFSET -2.99471 1.26495 -0.61125
						CHANNELS 3 Zrotation Yrotation Xrotation
						JOINT RightForeArm
						{
							OFFSET -5.28721 -0.00000 -0.00000
							CHANNELS 3 Zrotation Yrotation Xrotation
							JOINT RightHand
							{
								OFFSET -3.50544 -0.00000 0.00000
								CHANNELS 3 Zrotation Yrotation Xrotation
								JOINT RightFingerBase
								{
									OFFSET 0 0 0
									CHANNELS 3 Zrotation Yrotation Xrotation
									JOINT RightHandIndex1
									{
										OFFSET -0.88500 -0.00000 -0.00000
										CHANNELS 3 Zrotation Yrotation Xrotation
										End Site
										{
											OFFSET -0.71351 -0.00000 -0.00000
										}
									}
								}
								JOINT RThumb
								{
									OFFSET 0 0 0
									CHANNELS 3 Zrotation Yrotation Xrotation
									End Site
									{
										OFFSET -0.72440 -0.00000 0.72440
									}
								}
							}
						}
					}
				}
			}
		}
	}
}
MOTION
Frames: 12
Frame Time: .0083333
-6.338 17.4656 -8.654 0 0 0 0 0 0 -21 0 0 0 0 0 0 0 0 0 0 0 0 0 0 21 0 0 0 0 0 0 0 0 0 0 0 0 0 0 0 0 0 0 0 0 0 0 -16 0 0 21 0 0 11 0 0 0 -8 0 0 0 0 0 0 0 0 0 0 0 0 0 0 0 0 0 0 0 0 8 0 0 0 0 0 0 0 0 0 0 0 0 0 0 0 0 0
-6.3380 17.4656 -8.6540 2.7421 5.9328 -0.9736 0.0000 0.0000 0.0000 -26.6787 6.3561 1.6269 0.7761 5.6250 15.7001 0.7256 -9.9834 -15.7109 0.2772 -3.3866 -9.3569 0.0000 0.0000 0.0000 14.7096 2.5695 -34.4738 -5.5302 -13.9571 43.0658 -0.3552 -7.3321 -16.2648 -0.0576 1.5487 -4.2600 -7.3430 -4.3702 -1.8397 4.3733 -5.7516 -1.3362 8.5156 -2.8876 0.8173 -8.6259 -1.3524 -19.7003 10.5970 -1.0916 9.6989 4.7393 0.0360 6.2626 0.0000 0.0000 0.0000 -89.9190 -33.3904 99.2437 85.5422 -59.9248 -56.1404 -0.0000 0.0000 -79.3798 34.5522 59.3253 30.6370 -7.1250 0.0000 -0.0000 173.3441 4.0933 6.2066 0.0000 0.0000 0.0000 78.6763 5.5886 52.7529 -98.7116 59.7113 -67.5371 0.0000 0.0000 6.9450 -60.2409 19.1357 -29.8270 7.1250 -0.0000 -0.0000 -19.0741 3.3268 -21.3389
-6.3122 17.4648 -8.5504 2.7110 5.4015 -0.5975 0.0000 0.0000 0.0000 -26.7225 6.7833 1.9687 0.6888 5.3059 14.7831 0.7265 -9.7303 -15.6643 0.3075 -3.5649 -9.8556 0.0000 0.0000 0.0000 15.1781 2.8992 -34.8876 -5.0053 -13.3897 40.8455 -0.2635 -7.2694 -14.9689 -0.0953 1.9907 -5.4800 -7.1640 -4.2646 -1.8690 4.3370 -5.6108 -1.5623 8.3915 -2.7958 0.5487 -8.5101 -1.3737 -19.6963 10.3690 -1.1854 10.7327 4.6540 -0.0196 6.5987 0.0000 0.0000 0.0000 -89.6458 -31.1904 100.2496 83.7455 -59.8517 -54.5861 -0.0000 0.0000 -80.6923 27.2661 60.4939 24.1584 -7.1250 0.0000 -0.0000 170.7910 3.5711 8.7330 0.0000 0.0000 0.0000 79.2163 3.2209 53.6305 -97.3846 59.7929 -66.3908 0.0000 0.0000 5.7464 -58.0573 17.2584 -25.4473 7.1250 -0.0000 -0.0000 -18.4271 -0.8765 -19.1673
-6.2847 17.4721 -8.4486 3.0130 5.0875 -0.1918 0.0000 0.0000 0.0000 -27.1232 7.2152 2.4844 0.5814 4.8823 13.5732 0.6948 -9.6791 -15.3510 0.2498 -3.2158 -8.8801 0.0000 0.0000 0.0000 15.1941 3.0484 -35.3371 -4.5126 -12.8129 38.6722 -0.2144 -6.9059 -13.8730 -0.1034 2.0732 -5.7080 -7.3736 -4.6008 -1.8497 4.6585 -6.0636 -1.2355 8.8130 -3.0611 1.0260 -9.1448 -1.3910 -21.9866 9.9797 -0.8654 12.0008 4.7211 0.1244 7.3525 0.0000 0.0000 0.0000 -89.6652 -30.2265 99.6896 81.8559 -59.7479 -52.9530 -0.0000 0.0000 -81.3031 31.1949 60.1743 27.7128 -7.1250 0.0000 -0.0000 172.0618 4.0704 7.4276 0.0000 0.0000 0.0000 78.8113 2.9041 55.3958 -95.7154 59.8762 -64.9476 0.0000 0.0000 4.2451 -56.3068 16.3461 -22.8850 7.1250 -0.0000 -0.0000 -17.7139 -3.2144 -17.5676
-6.2624 17.4810 -8.3453 3.1222 4.9625 0.0054 0.0000 0.0000 0.0000 -27.2239 7.5997 3.2531 0.4836 4.4594 12.3727 0.6512 -9.7408 -14.9413 0.2478 -3.2032 -8.8449 0.0000 0.0000 0.0000 15.4677 2.9960 -35.4836 -4.0263 -12.1954 36.4267 -0.2062 -6.3418 -13.1677 -0.1070 2.1091 -5.8073 -7.3425 -4.6784 -1.8410 4.4912 -6.1662 -1.1450 8.6036 -3.1187 1.1150 -8.4698 -1.2681 -21.9417 9.3935 -0.8140 12.1781 4.4181 0.1239 7.3912 0.0000 0.0000 0.0000 -89.1286 -28.7041 100.3059 80.3491 -59.6451 -51.6521 -0.0000 0.0000 -81.6983 32.8975 59.9491 29.2451 -7.1250 0.0000 -0.0000 172.6390 4.2537 6.8526 0.0000 0.0000 0.0000 79.4927 1.4284 56.1008 -95.7189 59.8761 -64.9507 0.0000 0.0000 1.1118 -55.0735 17.4239 -23.2103 7.1250 -0.0000 -0.0000 -16.7269 -2.2758 -16.7900
-6.2423 17.4856 -8.2416 3.0491 4.6766 0.1730 0.0000 0.0000 0.0000 -27.1031 8.1596 4.1491 0.3711 3.9129 10.8318 0.5715 -9.8741 -14.1782 0.2022 -2.8955 -7.9878 0.0000 0.0000 0.0000 15.9864 3.0490 -35.5312 -3.5752 -11.5726 34.2364 -0.2224 -5.5799 -12.6889 -0.1247 2.2763 -6.2699 -7.1211 -4.8212 -1.7844 4.4408 -6.3633 -1.1571 8.4145 -3.2150 1.0813 -8.2686 -1.0668 -21.8210 9.2614 -0.6080 12.5508 4.3717 0.2165 7.4724 0.0000 -0.0000 0.0000 -88.4822 -26.9760 100.3965 79.1819 -59.5531 -50.6453 -0.0000 0.0000 -81.9155 33.2945 59.8094 29.5818 -7.1250 0.0000 -0.0000 172.8039 4.2210 6.7010 0.0000 -0.0000 0.0000 79.9024 -0.1274 57.4247 -94.0408 59.9382 -63.4987 0.0000 0.0000 0.5756 -55.1405 16.7025 -22.4211 7.1250 -0.0000 -0.0000 -16.9611 -3.2880 -16.7223
-6.2198 17.4881 -8.1400 3.3783 3.6802 0.7806 0.0000 0.0000 0.0000 -27.5676 9.1874 4.3415 0.2708 3.3473 9.2471 0.4925 -10.0090 -13.3968 0.1391 -2.4033 -6.6217 0.0000 0.0000 0.0000 16.0877 3.7556 -35.9436 -3.1618 -10.9525 32.1199 -0.2494 -4.7049 -12.3510 -0.2057 2.9199 -8.0559 -7.2682 -4.7202 -2.2145 4.3559 -6.1988 -1.1285 8.3796 -3.1434 1.3249 -8.1553 -1.0088 -22.2041 9.0439 -0.5232 13.0471 4.3057 0.2483 7.6904 -0.0000 0.0000 0.0000 -88.0503 -25.6015 100.4151 78.5155 -59.4957 -50.0710 -0.0000 0.0000 -82.1454 33.7964 59.9598 30.0897 -7.1250 0.0000 -0.0000 172.8985 4.4806 6.5767 -0.0000 0.0000 0.0000 80.0324 -1.0422 58.5246 -92.2374 59.9811 -61.9375 0.0000 0.0000 0.2534 -55.1353 15.7735 -21.3147 7.1250 -0.0000 -0.0000 -17.2110 -4.6526 -16.5383
-6.2039 17.4933 -8.0320 3.7981 3.5684 1.1000 0.0000 0.0000 0.0000 -27.9292 9.5920 5.3356 0.1710 2.6636 7.3436 0.3918 -10.3056 -12.3997 0.0837 -1.8656 -5.1344 0.0000 0.0000 0.0000 15.9682 3.9806 -36.0226 -2.8114 -10.3833 30.2271 -0.2904 -4.3105 -12.6936 -0.3733 3.9240 -10.8630 -7.6453 -4.8406 -2.2966 4.2571 -6.3454 -0.9076 8.4587 -3.2416 1.6604 -7.8220 -1.0079 -23.0597 8.4652 -0.4811 13.5153 4.0793 0.2423 7.9808 -0.0000 -0.0000 0.0000 -87.7350 -24.5803 100.2193 78.2718 -59.4738 -49.8610 -0.0000 0.0000 -82.3469 43.2038 58.5955 38.7158 -7.1250 0.0000 -0.0000 176.1121 6.0366 3.4657 -0.0000 -0.0000 0.0000 79.9641 -1.3164 59.4781 -90.2798 59.9997 -60.2423 0.0000 0.0000 0.0728 -55.5032 15.9753 -21.8260 7.1250 -0.0000 -0.0000 -17.3644 -4.1744 -16.8631
-6.1794 17.4976 -7.9289 3.9794 3.3359 1.5331 0.0000 0.0000 0.0000 -28.0643 10.2283 6.6768 0.0648 1.6422 4.5178 0.2571 -10.7283 -11.0119 0.0333 -1.1771 -3.2362 0.0000 0.0000 0.0000 16.0955 4.0793 -36.4006 -2.5279 -9.8885 28.6164 -0.3138 -3.6448 -12.5636 -0.4767 4.4280 -12.2841 -7.6178 -4.8957 -2.4290 4.1723 -6.4087 -0.7770 8.3281 -3.2865 1.8712 -7.4026 -0.9680 -23.7871 7.9160 -0.4231 13.8484 3.8450 0.2467 8.2050 0.0000 -0.0000 0.0000 -87.4384 -23.5854 99.9022 78.2024 -59.4675 -49.8012 -0.0000 0.0000 -82.5501 38.2009 59.6518 34.1810 -7.1250 0.0000 -0.0000 174.2779 5.3771 5.1873 0.0000 -0.0000 0.0000 79.8552 -1.5368 60.4829 -88.4865 59.9913 -58.6893 0.0000 -0.0000 -0.1295 -56.4464 16.5946 -23.2975 7.1250 -0.0000 -0.0000 -17.7230 -2.7714 -17.7275
-6.1530 17.5082 -7.8128 4.2580 3.1678 1.8394 0.0000 0.0000 0.0000 -28.2215 11.2087 9.1453 0.0000 -0.0000 -0.0000 0.0813 -10.9330 -8.8511 0.0148 -0.7842 -2.1552 0.0000 0.0000 0.0000 16.1468 3.8587 -36.7006 -2.3080 -9.4801 27.3091 -0.3568 -2.6591 -12.5771 -0.4532 4.3190 -11.9759 -7.7216 -4.9502 -2.5096 4.0668 -6.4711 -0.6810 8.2564 -3.3280 2.0285 -7.1270 -0.9528 -24.2419 7.5801 -0.4106 14.1337 3.6970 0.2384 8.3741 0.0000 0.0000 0.0000 -87.2774 -22.5897 99.8172 78.1183 -59.4598 -49.7288 -0.0000 0.0000 -82.4698 38.3914 59.7063 34.3781 -7.1250 0.0000 -0.0000 174.3101 5.4798 5.1466 0.0000 0.0000 0.0000 79.6519 -1.7747 61.3630 -87.1372 59.9690 -57.5210 0.0000 -0.0000 -0.2057 -56.9462 16.7303 -23.8630 7.1250 -0.0000 -0.0000 -17.9632 -2.2992 -18.1551
-6.1368 17.5135 -7.7037 4.5705 3.2637 1.9106 0.0000 0.0000 0.0000 -28.4581 11.1942 9.5071 0.0000 -0.0000 -0.0000 0.0693 -11.1001 -8.7860 0.0137 -0.7560 -2.0778 0.0000 0.0000 0.0000 16.0186 3.9264 -36.6034 -2.1423 -9.1563 26.2856 -0.4325 -2.3424 -13.5006 -0.5431 4.7215 -13.1159 -8.0371 -5.0973 -2.1906 4.0201 -6.6823 -0.6519 8.3951 -3.4347 1.9533 -6.9017 -0.9296 -24.3802 7.1281 -0.3681 14.4469 3.5170 0.2227 8.4979 0.0000 0.0000 0.0000 -87.3261 -21.4309 99.5046 78.0190 -59.4506 -49.6433 -0.0000 0.0000 -82.0815 39.0295 59.1919 34.8474 -7.1250 0.0000 -0.0000 174.6942 5.2154 4.8227 0.0000 0.0000 0.0000 79.3482 -2.0974 62.1580 -86.4556 59.9525 -56.9309 0.0000 -0.0000 -0.0194 -56.5840 16.5039 -23.2952 7.1250 -0.0000 -0.0000 -17.8249 -2.8329 -17.8196
-6.1202 17.5141 -7.6028 4.8564 3.3874 1.9608 0.0000 0.0000 0.0000 -28.6818 11.1524 9.8566 0.0000 0.0000 0.0000 0.0549 -11.1358 -8.6070 0.0268 -1.0560 -2.9028 0.0000 0.0000 0.0000 15.8101 4.2221 -36.4733 -2.0203 -8.9083 25.5089 -0.5140 -2.2965 -14.5723 -0.7233 5.4345 -15.1522 -8.2985 -5.3010 -1.8634 3.9716 -6.9738 -0.7113 8.5011 -3.5735 1.7928 -6.7740 -0.7722 -23.5906 6.8476 -0.1801 14.1862 3.4094 0.2773 8.2623 -0.0000 0.0000 0.0000 -87.3488 -20.1485 98.7347 78.2537 -59.4722 -49.8455 -0.0000 0.0000 -81.6477 38.3045 58.8874 34.0689 -7.1250 0.0000 -0.0000 174.6056 4.7327 4.9534 -0.0000 0.0000 0.0000 79.0397 -2.5830 63.0370 -86.2588 59.9470 -56.7606 0.0000 0.0000 0.4133 -56.3899 16.4398 -23.0642 7.1250 -0.0000 -0.0000 -17.7344 -3.0314 -17.6523
